Coordinates
version=1
nRows=33
nColumns=30
inDegrees=yes

Units are S.I. units (second, meters, Newtons, ...)
Angles are in degrees.

endheader
time	floatyaw	floatroll	floatpitch	floatx	floaty	floatz	pro_sup_l	deviation_l	flexion_l	cmc_flexion_l	cmc_abduction_l	mp_flexion_l	ip_flexion_l	2mcp_flexion_l	2mcp_abduction_l	2pm_flexion_l	2md_flexion_l	3mcp_flexion_l	3mcp_abduction_l	3pm_flexion_l	3md_flexion_l	4mcp_flexion_l	4mcp_abduction_l	4pm_flexion_l	4md_flexion_l	5mcp_flexion_l	5mcp_abduction_l	5pm_flexion_l	5md_flexion_l
0.005000	-1.899941	-3.552005	97.501371	0.062867	-0.123461	0.045895	80.874246	18.072415	-1.172991	-1.172480	37.934742	-27.535795	-45.690386	64.085276	8.797372	63.976926	45.337121	66.391698	6.428880	70.412668	48.006231	66.778785	-5.581633	84.632536	56.065515	55.466372	-9.539376	88.927089	49.446652
0.015000	-1.899941	-3.552005	97.501371	0.062615	-0.121754	0.044917	80.183033	18.487756	-1.764753	-1.449343	38.456692	-27.491561	-45.950338	64.121287	8.547499	63.417565	45.318612	66.632870	6.410489	70.462952	48.264016	67.328122	-5.521798	84.980846	56.483697	56.548234	-9.463142	88.852067	49.094278
0.025000	-1.899941	-3.552005	97.501371	0.062335	-0.119533	0.044008	79.644926	18.997524	-2.522017	-1.801637	38.888374	-27.326642	-45.968099	64.079022	8.381888	62.887665	45.206209	66.615255	6.415181	70.369942	48.466245	67.474870	-5.449340	85.095348	56.792548	57.122984	-9.514067	88.687431	48.864429
0.035000	-1.899941	-3.552005	97.501371	0.062133	-0.116910	0.043316	79.331547	19.536190	-3.275633	-2.171412	39.293964	-27.098843	-45.910585	64.092622	8.282315	62.394984	45.070647	66.519574	6.430521	70.167424	48.666673	67.452003	-5.391182	85.049680	57.097658	57.346746	-9.617025	88.509287	48.775182
0.045000	-1.899941	-3.552005	97.501371	0.062054	-0.114107	0.042904	79.309065	20.054046	-3.875308	-2.480508	39.714384	-26.853750	-45.906436	64.172333	8.206517	61.895789	44.950986	66.431032	6.444424	69.858494	48.871474	67.396459	-5.359564	84.874204	57.435294	57.367101	-9.713468	88.268063	48.779317
0.055000	-1.899941	-3.552005	97.501371	0.062088	-0.111442	0.042742	79.562650	20.522908	-4.238183	-2.684272	40.151471	-26.622802	-46.009374	64.272092	8.116679	61.339494	44.866853	66.379460	6.449765	69.448846	49.060540	67.376323	-5.353159	84.579412	57.785891	57.309919	-9.770183	87.890645	48.811913
0.065000	-1.899941	-3.552005	97.501371	0.062183	-0.109250	0.042728	79.978256	20.926988	-4.368507	-2.786808	40.571172	-26.419377	-46.196257	64.347865	7.996946	60.704506	44.826181	66.371208	6.445172	68.967074	49.211286	67.414846	-5.362433	84.183511	58.106967	57.266793	-9.775964	87.356405	48.826363
0.075000	-1.899941	-3.552005	97.501371	0.062264	-0.107767	0.042737	80.387385	21.252852	-4.339330	-2.824739	40.923925	-26.237799	-46.394211	64.382647	7.855755	60.013885	44.826418	66.399697	6.433158	68.465538	49.314509	67.501267	-5.376125	83.728431	58.365348	57.282889	-9.734501	86.718928	48.808259
0.085000	-1.899941	-3.552005	97.501371	0.062257	-0.107054	0.042678	80.643096	21.487461	-4.248705	-2.838628	41.170433	-26.060919	-46.521921	64.379962	7.716222	59.329320	44.854009	66.442944	6.417425	68.005809	49.377454	67.596409	-5.386193	83.276514	58.552863	57.351193	-9.658478	86.079911	48.770001
0.095000	-1.899941	-3.552005	97.501371	0.062115	-0.106984	0.042525	80.680545	21.623384	-4.175677	-2.850508	41.298959	-25.874330	-46.527145	64.344613	7.601959	58.729270	44.887677	66.463738	6.400848	67.639548	49.416891	67.644808	-5.389718	82.892406	58.682640	57.420776	-9.565286	85.542926	48.736363
0.105000	-1.899941	-3.552005	97.501371	0.061833	-0.107318	0.042314	80.530596	21.664440	-4.157190	-2.857407	41.326950	-25.678645	-46.406421	64.269494	7.525920	58.281597	44.906917	66.420042	6.384811	67.395465	49.449542	67.595177	-5.387967	82.622815	58.775101	57.420111	-9.472852	85.175621	48.730911
0.115000	-1.899941	-3.552005	97.501371	0.061433	-0.107799	0.042115	80.286319	21.626119	-4.190965	-2.840242	41.289427	-25.492292	-46.202036	64.135878	7.486700	58.022074	44.901879	66.280636	6.369683	67.277233	49.486409	67.419759	-5.384029	82.485929	58.846280	57.286618	-9.394986	84.995740	48.768592
0.125000	-1.899941	-3.552005	97.501371	0.060957	-0.108244	0.041990	80.047463	21.530387	-4.254138	-2.779843	41.222429	-25.344019	-45.981327	63.923155	7.472090	57.947056	44.878630	66.035863	6.355658	67.270633	49.533279	67.121975	-5.380642	82.474556	58.905401	56.989261	-9.337567	84.980779	48.855054
0.135000	-1.899941	-3.552005	97.501371	0.060442	-0.108578	0.041963	79.874478	21.398792	-4.322477	-2.669939	41.149809	-25.260863	-45.809867	63.619707	7.466340	58.022057	44.856178	65.698050	6.343238	67.354703	49.595193	66.730208	-5.379119	82.568558	58.959584	56.535896	-9.297710	85.090666	48.989495
0.145000	-1.899941	-3.552005	97.501371	0.059918	-0.108817	0.042020	79.772673	21.248166	-4.380348	-2.520644	41.077943	-25.259012	-45.730224	63.229189	7.456940	58.200430	44.856774	65.294207	6.333130	67.511265	49.679939	66.284420	-5.379383	82.747926	59.017925	55.965868	-9.266840	85.289424	49.166413
0.155000	-1.899941	-3.552005	97.501371	0.059409	-0.109024	0.042119	79.707804	21.090403	-4.420872	-2.352445	40.998394	-25.341008	-45.752721	62.771060	7.438315	58.441322	44.894901	64.857639	6.325826	67.728422	49.796518	65.824190	-5.380634	82.998896	59.089331	55.334447	-9.236165	85.554912	49.373994
0.165000	-1.899941	-3.552005	97.501371	0.058935	-0.109251	0.042218	79.637991	20.934727	-4.441952	-2.186042	40.895243	-25.497218	-45.857939	62.276932	7.411893	58.717039	44.970776	64.422512	6.321298	67.996651	49.948921	65.382042	-5.382036	83.310734	59.175976	54.696482	-9.201405	85.873829	49.591648
0.175000	-1.899941	-3.552005	97.501371	0.058517	-0.109512	0.042292	79.541329	20.789974	-4.443777	-2.034770	40.752797	-25.707784	-46.006720	61.784178	7.383467	59.007770	45.071683	64.020286	6.319061	68.300903	50.130366	64.980654	-5.383075	83.667408	59.269662	54.094179	-9.164258	86.228831	49.791928
0.185000	-1.899941	-3.552005	97.501371	0.058167	-0.109784	0.042332	79.425079	20.665074	-4.429095	-1.903292	40.561043	-25.944673	-46.153402	61.327465	7.359375	59.291466	45.180225	63.674826	6.318508	68.616019	50.323795	64.631184	-5.383546	84.042394	59.356117	53.550891	-9.130393	86.589883	49.949456
0.195000	-1.899941	-3.552005	97.501371	0.057883	-0.110027	0.042347	79.315453	20.567219	-4.403712	-1.791255	40.318675	-26.176811	-46.259385	60.929612	7.343253	59.540600	45.284154	63.395895	6.319216	68.911403	50.509431	64.332315	-5.383427	84.402699	59.424379	53.070658	-9.105805	86.918371	50.053111
0.205000	-1.899941	-3.552005	97.501371	0.057653	-0.110210	0.042348	79.238175	20.498617	-4.374850	-1.697634	40.034459	-26.379562	-46.304193	60.595430	7.334781	59.730827	45.380974	63.175199	6.321012	69.163566	50.674043	64.072079	-5.382850	84.720559	59.473245	52.642479	-9.093798	87.182044	50.113211
0.215000	-1.899941	-3.552005	97.501371	0.057454	-0.110325	0.042347	79.203106	20.453919	-4.347958	-1.622173	39.726795	-26.544178	-46.290499	60.312618	7.330821	59.854865	45.474480	62.989965	6.323830	69.367546	50.815041	63.833861	-5.382211	84.984437	59.509540	52.247871	-9.093929	87.370099	50.157479
0.225000	-1.899941	-3.552005	97.501371	0.057267	-0.110388	0.042350	79.200881	20.420555	-4.324689	-1.563734	39.420221	-26.680143	-46.240556	60.060265	7.327980	59.929400	45.567407	62.814385	6.327496	69.538006	50.937220	63.604745	-5.382230	85.201396	59.540700	51.869648	-9.102834	87.497617	50.217220
0.235000	-1.899941	-3.552005	97.501371	0.057078	-0.110426	0.042364	79.210953	20.382680	-4.303838	-1.518207	39.138509	-26.807482	-46.185252	59.820296	7.324915	59.988416	45.657409	62.632910	6.331660	69.698754	51.046214	63.381813	-5.383744	85.389779	59.568669	51.499127	-9.115889	87.596353	50.311852
0.245000	-1.899941	-3.552005	97.501371	0.056885	-0.110464	0.042391	79.214033	20.327043	-4.284399	-1.478907	38.896995	-26.943696	-46.151377	59.585431	7.323097	60.066881	45.739562	62.447431	6.335936	69.868200	51.144542	63.172866	-5.387272	85.567933	59.589793	51.139085	-9.128658	87.698199	50.440461
0.255000	-1.899941	-3.552005	97.501371	0.056693	-0.110517	0.042435	79.200865	20.247692	-4.268017	-1.439860	38.698727	-27.093958	-46.153520	59.360059	7.325771	60.185181	45.811792	62.274245	6.340124	70.050513	51.232442	62.991353	-5.392648	85.746304	59.599410	50.801073	-9.137736	87.821877	50.583946
0.265000	-1.899941	-3.552005	97.501371	0.056508	-0.110591	0.042494	79.173253	20.147170	-4.258818	-1.399592	38.536808	-27.250420	-46.193219	59.154793	7.335889	60.343373	45.877093	62.133053	6.344268	70.237177	51.310889	62.848372	-5.399060	85.926598	59.596273	50.498329	-9.141170	87.970022	50.715208
0.275000	-1.899941	-3.552005	97.501371	0.056335	-0.110686	0.042564	79.139043	20.034272	-4.260927	-1.362299	38.400506	-27.399541	-46.262980	58.978354	7.354247	60.527104	45.940164	62.034587	6.348483	70.416047	51.382978	62.745873	-5.405490	86.106463	59.583365	50.238173	-9.138588	88.135506	50.811405
0.285000	-1.899941	-3.552005	97.501371	0.056177	-0.110798	0.042641	79.105984	19.920280	-4.275760	-1.335345	38.280483	-27.531091	-46.350919	58.831236	7.378793	60.719295	46.001712	61.973846	6.352739	70.580394	51.452497	62.674452	-5.411187	86.284828	59.565606	50.018414	-9.130975	88.309681	50.862531
0.295000	-1.899941	-3.552005	97.501371	0.056031	-0.110920	0.042715	79.078234	19.815599	-4.300868	-1.324965	38.170656	-27.642739	-46.443357	58.704490	7.405381	60.908941	46.055603	61.932416	6.356825	70.731861	51.521338	62.616740	-5.415862	86.463760	59.547105	49.829486	-9.120137	88.486160	50.873402
0.305000	-1.899941	-3.552005	97.501371	0.055898	-0.111047	0.042781	79.056086	19.727586	-4.330546	-1.333317	38.067572	-27.738670	-46.525277	58.584230	7.429401	61.092053	46.091363	61.888051	6.360508	70.876695	51.587883	62.554448	-5.419563	86.646153	59.529804	49.659931	-9.108084	88.659459	50.859676
0.315000	-1.899941	-3.552005	97.501371	0.055774	-0.111169	0.042832	79.037467	19.659547	-4.357461	-1.358660	37.969300	-27.824971	-46.580350	58.459309	7.447440	61.266151	46.100585	61.825604	6.363743	71.019361	51.647335	62.475394	-5.422487	86.831440	59.513739	49.501078	-9.096523	88.822134	50.840764
0.325000	-1.899941	-3.552005	97.501371	0.055661	-0.111275	0.042865	79.019799	19.610743	-4.374591	-1.397703	37.874878	-27.905551	-46.592998	58.327742	7.458252	61.424006	46.083338	61.743209	6.366714	71.158275	51.694067	62.377368	-5.424884	87.012411	59.498442	49.348332	-9.086532	88.964029	50.832821
